#!OML:ASF F:\VICON\USERDATA\INSTALL\rory3\rory3.ASF
:FULLY-SPECIFIED
:DEGREES
54
root 0.6561255836326355 18.401890047755558 23.55279175030125 -6.715765980495159 -4.036997134392077 -1.4882861788844541
lfemur -11.155148656744037 -5.282409183925158 -20.951948644459495
ltibia 18.498400947251408
lfoot -3.879370208083133 -1.6296005451497302
ltoes -0.25819744857639026
rfemur -5.817326589523406 1.1886044826023767 24.785441577234234
rtibia 52.29490058948894
rfoot 6.404736354162427 -4.545188852117246
rtoes 12.100419677382744
lowerback 7.521900881279243 1.125950987011258 1.7371216108807528
upperback 0.4369579493960117 1.8323703183079432 1.2880492628209081
thorax -3.742127128470619 0.8499024772990977 0.14305483698492139
lowerneck -14.175373389102571 -2.426143735833938 -1.5415385603233753
upperneck 26.15733626991353 -3.007766984669654 -0.8260671487560609
head 10.633158667676625 -1.5942728291664237 -0.4311654459498574
lclavicle -9.2582890529294e-16 -7.8295928634761e-16
lhumerus -32.02577124200657 15.602525725602886 73.37713062443139
lradius -13.604959797601275
lwrist -6.591569557589178
lhand -29.442631048270897 30.294729295335987
lfingers 7.125020000000057
lthumb -2.7787651405853353 60.25335314848128
rclavicle -9.2582890529294e-16 -7.829592863476101e-16
rhumerus -18.95025534791053 -32.24037370620581 -69.73607873872757
rradius -3.210217812237481
rwrist 14.030925195365278
rhand -16.579572374427613 29.082576716643207
rfingers 7.125020000000057
rthumb 9.640414854216196 -9.25768914363742
55
root 0.6361559474514153 18.4133351705156 22.74610359273766 -6.705272368376422 -3.233655133246201 0.19370582928425772
lfemur -5.990948060560239 -4.938397106413219 -23.838880743759937
ltibia 20.670845351161436
lfoot -5.648835431707441 -2.1901210896157393
ltoes 0.7078597691577615
rfemur -14.298407164365324 -0.303229908514957 22.366189284347502
rtibia 58.51055633652649
rfoot 6.290490790194484 -5.865544892321902
rtoes 11.912449866924556
lowerback 8.142660578047517 0.568842508017728 -0.053206942502212806
upperback 0.5020616745848976 0.8684573188054026 1.1122850338106556
thorax -4.045437880108274 0.4247876392602645 1.1598214040769905
lowerneck -14.253694493527387 -2.3286751582538283 -1.7117677330414676
upperneck 25.661807261982542 -2.857563863905277 -0.5933459898019291
head 10.484885205045709 -1.515075680364599 -0.30656112146019754
lclavicle -8.346209596418191e-16 -7.124513133795247e-16
lhumerus -30.127527573780846 12.289800814913699 74.4980125716659
lradius -7.565888722822926
lwrist -4.215081816608844
lhand -29.26303958893911 29.376124486772078
lfingers 7.125020000000057
lthumb -2.6053693155719833 59.3309649325368
rclavicle -8.346209596418198e-16 -7.124513133795249e-16
rhumerus -22.593252609312508 -32.446379232918716 -70.14428006964535
rradius 0.22461837931079032
rwrist 13.961106742678876
rhand -16.60827205040994 29.46094900650112
rfingers 7.125020000000057
rthumb 9.612645983831024 -8.48621934162131
56
root 0.6092099549134128 18.393489452599418 22.23149674095921 -6.430352033692536 -2.2379720081605328 1.4054046646777025
lfemur -1.61129097565105 -4.54349822345153 -25.86913995922635
ltibia 21.716984194141006
lfoot -8.160898605761753 -2.1324378046036574
ltoes 1.1890350177303235
rfemur -21.188756827116233 -0.8624535110817622 20.626580410711686
rtibia 57.541303844307706
rfoot 3.256053076833292 -7.693354008775078
rtoes 10.09558712648729
lowerback 8.579784687769559 0.021242689564660355 -1.5098468900950974
upperback 0.5747315758777847 -0.04233026756250069 1.0357484317824983
thorax -4.2247108500107355 0.015577301950338351 2.064155469963602
lowerneck -14.38476687984834 -2.296382687133119 -1.8977708454384326
upperneck 25.054193168296873 -2.7913127642860953 -0.3765457718402656
head 10.309901515577083 -1.4763120619081422 -0.192542911339587
lclavicle -8.527248750810661e-16 -7.264442065214999e-16
lhumerus -28.08608800355691 8.605309318038529 75.50538981721543
lradius -2.137157608290792
lwrist -2.1912641479041888
lhand -29.274394924961854 28.676459914103347
lfingers 7.125020000000057
lthumb -2.616382590401281 58.62959112372851
rclavicle -8.527248750810666e-16 -7.2644420652149985e-16
rhumerus -25.41642811284847 -32.33037351494315 -70.56052865395634
rradius 2.7642986531808376
rwrist 13.552476142813944
rhand -16.677290363414365 29.78860968827756
rfingers 7.125020000000057
rthumb 9.545994404158707 -7.878719099337218
57
root 0.6000256065969563 18.361204586830386 22.51826918688883 -6.128535016233968 -1.3740950517007327 2.1842454865716188
lfemur 2.061559742505164 -4.267257048287027 -27.15320928385621
ltibia 20.51180911235376
lfoot -10.633943685972358 -1.8450842606637283
ltoes 1.3597460661348064
rfemur -25.51690396962089 -0.5440888736384117 19.41986860288688
rtibia 50.87812488925141
rfoot 0.04729317127668908 -9.475190475092829
rtoes 7.322325876453688
lowerback 8.61880773426076 -0.4181486713220699 -2.5491886188746724
upperback 0.6227567220859771 -0.7654279807250869 1.0188977303145945
thorax -4.19170537043031 -0.3122326648092413 2.749126070861848
lowerneck -14.445390384995534 -2.296347659123221 -2.0778671870163805
upperneck 24.686480908623004 -2.7635942885309643 -0.26152152478892354
head 10.20076810616905 -1.4626882475541991 -0.11928536455464656
lclavicle -9.69977995165977e-16 -8.171770966000729e-16
lhumerus -25.966097625221582 5.700213232918184 75.77876622260095
lradius 0.11450493169263609
lwrist -1.368270123014323
lhand -29.402114422629296 28.704161290659798
lfingers 7.125020000000057
lthumb -2.739759863154548 58.65772195676821
rclavicle -9.699779951659771e-16 -8.171770966000737e-16
rhumerus -27.028972761087722 -32.75951287533073 -70.43878590205611
rradius 2.6602512726740812
rwrist 13.424944674684223
rhand -16.69464191832637 29.906758607177615
rfingers 7.125020000000057
rthumb 9.529247973162175 -7.704952916439198
